<svg width="24" height="24" xmlns="http://www.w3.org/2000/svg" fill="#000000">
    <g>
        <title>Layer 1</title>
        <path id="svg_1" fill="none" d="m0,0l24,0l0,24l-24,0l0,-24z"/>
        <path stroke="null" id="svg_2" d="m2.53,4.49916l1.34,-0.57991l0,9.35104l-2.43,-6.06834c-0.41,-1.05626 0.08,-2.26786 1.09,-2.70279zm19.5,3.83154l-4.96,12.39556c-0.31,0.77666 -1.04,1.25302 -1.81,1.27373c-0.26,0 -0.53,-0.04142 -0.79,-0.15533l-7.37,-3.15844c-0.75,-0.32102 -1.21,-1.06662 -1.23,-1.86399c-0.01,-0.2796 0.04,-0.5592 0.15,-0.82844l4.96,-12.39556c0.31,-0.78702 1.05,-1.26337 1.83,-1.27373c0.26,0 0.52,0.05178 0.77,0.15533l7.36,3.15844c1.02,0.43493 1.51,1.64653 1.09,2.69244zm-9.2,-3.9351l-4.96,12.38521l7.35,3.14808l0.01,0l4.95,-12.37485l-7.35,-3.15844z"/>
        <path stroke="null" id="svg_4" d="m5.88,4.82726c0,-1.32826 0.9,-2.41501 2,-2.41501l1.45,0l-3.45,10.0706l0,-7.65558z"/>
    </g>
</svg>
